<?xml version="1.0" encoding="utf-8"?>
<!-- Generator: Adobe Illustrator 19.2.0, SVG Export Plug-In . SVG Version: 6.00 Build 0)  -->
<svg version="1.1" id="Слой_1" xmlns="http://www.w3.org/2000/svg" xmlns:xlink="http://www.w3.org/1999/xlink" x="0px" y="0px"
	 viewBox="0 0 240 50" style="enable-background:new 0 0 240 50;" xml:space="preserve">
<style type="text/css">
	.st0{fill:#5367AC;}
	.st1{fill:#DB7946;}
</style>
<g>
	<path class="st0" d="M8.3,31v6.9c0,2.7,1,3.8,3.4,3.8h6.6c2.4,0,3.4-1.1,3.4-3.8v-2.1h3.3v1.8c0,5-2.1,7.4-6.5,7.4h-6.8
		C7.1,45,5,42.6,5,37.5V22.9c0-5,2.1-7.4,6.5-7.4h6.8c4.4,0,6.5,2.4,6.5,7.4V31H8.3z M8.3,22.5v5.4h13.4v-5.4c0-2.7-0.9-3.8-3.4-3.8
		h-6.6C9.2,18.7,8.3,19.8,8.3,22.5z"/>
	<rect x="30.3" y="6.1" class="st1" width="3.8" height="4.8"/>
	<rect x="30.5" y="15.4" class="st0" width="3.3" height="29.6"/>
	<path class="st0" d="M43,37.5V18.7h-3.8v-3.3H43V8.3h3.3v7.1h6.5v3.3h-6.5v19.1c0,2.7,1,3.8,3.4,3.8h3.1V45h-3.2
		C45.1,45,43,42.6,43,37.5z"/>
	<path class="st0" d="M58.1,5h3.3v14.4c2.5-2.5,4.6-4.3,9.1-4.3c5.3,0,7.4,2.4,7.4,7.4V45h-3.3V22.4c0-2.7-0.9-3.8-4.2-3.8
		c-4.1,0-6.3,1.3-9.1,3.6V45h-3.3V5z"/>
	<path class="st0" d="M86.5,31v6.9c0,2.7,1,3.8,3.4,3.8h6.6c2.4,0,3.4-1.1,3.4-3.8v-2.1h3.3v1.8c0,5-2.1,7.4-6.5,7.4h-6.8
		c-4.4,0-6.5-2.4-6.5-7.4V22.9c0-5,2.1-7.4,6.5-7.4h6.8c4.4,0,6.5,2.4,6.5,7.4V31H86.5z M86.5,22.5v5.4h13.4v-5.4
		c0-2.7-0.9-3.8-3.4-3.8h-6.6C87.5,18.7,86.5,19.8,86.5,22.5z"/>
	<path class="st0" d="M108.5,15.4h3.3v4.3c2.3-2.2,4.5-4.3,8.3-4.3h1.8V19h-1.8c-3.3,0-5.7,1.6-8.3,3.4V45h-3.3V15.4z"/>
	<path class="st0" d="M126.8,36.4V36h3.2v0.6c0,3.8,1,4.9,3.4,4.9h6.5c2.4,0,3.4-1.1,3.4-5.1c0-3.4-1-4-3-4.4l-7.6-1.4
		c-3.8-0.7-5.6-2.5-5.6-7.1c0-5.7,2.1-8.2,6.5-8.2h5.7c4.4,0,6.5,2.4,6.5,8v0.4h-3.2v-0.7c0-3.3-1-4.4-3.4-4.4h-5.6
		c-2.4,0-3.4,1.1-3.4,4.6c0,3,1,3.5,3,3.9l7.6,1.4c3.8,0.7,5.6,2.5,5.6,7.6c0,6.3-2.1,8.7-6.5,8.7h-6.6
		C128.9,45,126.8,42.6,126.8,36.4z"/>
	<path class="st0" d="M151.9,37.5V22.9c0-5,2.1-7.4,6.5-7.4h7.2c4.4,0,6.5,2.4,6.5,7.4v14.7c0,5-2.1,7.4-6.5,7.4h-7.2
		C154,45,151.9,42.6,151.9,37.5z M165.5,41.6c2.4,0,3.4-1.1,3.4-3.8V22.6c0-2.7-1-3.8-3.4-3.8h-7c-2.4,0-3.4,1.1-3.4,3.8v15.1
		c0,2.7,1,3.8,3.4,3.8H165.5z"/>
	<path class="st0" d="M182,18.6h-4.6v-3.2h4.6v-3c0-5,2.1-7.4,6.5-7.4h3.7v3.3h-3.7c-2.4,0-3.4,1.1-3.4,3.8v3.3h7.6v3.2h-7.5V45H182
		V18.6z"/>
	<path class="st0" d="M202,37.5V18.7h-3.8v-3.3h3.8V8.3h3.3v7.1h6.5v3.3h-6.5v19.1c0,2.7,1,3.8,3.4,3.8h3.1V45h-3.2
		C204.1,45,202,42.6,202,37.5z"/>
	<g>
		<path class="st1" d="M217.1,41.3l15.5-11.1l-15.5-11.1v-3.7L235,28.3v3.8L217.1,45V41.3z"/>
	</g>
</g>
</svg>
